# xmcd
#
# Track frame offsets: 
#        150
#        13596
#        23839
#        34064
#        46043
#        56425
#        68697
#        78771
#        90419
#        104667
#        116960
#        134125
#        145587
#        155637
#        165059
#
# Disc length: 2428 seconds
#
# Revision: 2
# Processed by: cddbd v1.5.2PL0 Copyright (c) Steve Scherf et al.
# Submitted via: ExactAudioCopy v1.1
#
DISCID=b8097a0f
DTITLE=Various Artist - Ralph Emery Presents Country Roads - For The Good Tim
DTITLE=es
DYEAR=2006
DGENRE=Classic Country
TTITLE0=Glen Campbell - Southern Nights
TTITLE1=Everly Brothers - Bird Dog
TTITLE2=Billy Crash Craddock - Rub It In
TTITLE3=Dolly Parton - Jolene
TTITLE4=Connie Smith - Ain't Had No Lovin'
TTITLE5=Hank Williams - Cold Cold Heart
TTITLE6=Statler Brothers - Do You Know You Are My Sunshine
TTITLE7=George Jones - She Thinks I Still Care
TTITLE8=Don Williams - Amanda
TTITLE9=Charlie Rich - The Most Beautiful Girl
TTITLE10=C.W. McCall - Convoy
TTITLE11=Carl Smith - Loose Talk
TTITLE12=Loretta Lynn - You Ain't Woman Enough To Take My Man
TTITLE13=Jim Reeves - Billy Bayou
TTITLE14=Ray Price - For The Good Times
EXTD=
EXTT0=
EXTT1=
EXTT2=
EXTT3=
EXTT4=
EXTT5=
EXTT6=
EXTT7=
EXTT8=
EXTT9=
EXTT10=
EXTT11=
EXTT12=
EXTT13=
EXTT14=
PLAYORDER=
